<?xml version="1.0" encoding="utf-8"?>
<!-- Generator: Adobe Illustrator 19.2.1, SVG Export Plug-In . SVG Version: 6.00 Build 0)  -->
<svg version="1.1" id="Layer_1" xmlns="http://www.w3.org/2000/svg" xmlns:xlink="http://www.w3.org/1999/xlink" x="0px" y="0px"
	 viewBox="0 0 946.9 98.1" style="enable-background:new 0 0 946.9 98.1;" xml:space="preserve">
<style type="text/css">
	.st0{fill:#3366EE;stroke:#000000;}
</style>
<g transform="rotate(0)">
	<path class="st0" d="M0,98.1h1.7c1.7,0,5.1,0,8.6,0s6.9,0,10.3,0s6.9,0,10.3,0s6.9,0,10.3,0c3.4,0,6.9,0,10.3,0c3.4,0,6.9,0,10.3,0
		s6.9,0,10.3,0s6.9,0,10.3,0s6.9,0,10.3,0s6.9,0,10.3,0c3.4,0,6.9,0,10.3,0s6.9,0,10.3,0s6.9,0,10.3,0c3.4,0,6.9,0,10.3,0
		c3.4,0,6.9,0,10.3,0s6.9,0,10.3,0c3.4,0,6.9,0,10.3,0c3.4,0,6.9,0,10.3,0c3.4,0,6.9,0,10.3,0c3.4,0,6.9,0,10.3,0
		c3.4,0,6.9,0,10.3,0c3.4,0,6.9,0,10.3,0c3.4,0,6.9,0,10.3,0c3.4,0,6.9,0,10.3,0c3.4,0,6.9,0,10.3,0c3.4,0,6.9,0,10.3,0
		c3.4,0,6.9,0,10.3,0c3.4,0,6.9,0,10.3,0c3.4,0,6.9,0,10.3,0s6.9,0,10.3,0s6.9,0,10.3,0s6.9,0,10.3,0c3.4,0,6.9,0,10.3,0
		c3.4,0,6.9,0,10.3,0c3.4,0,6.9,0,10.3,0c3.4,0,6.9,0,10.3,0s6.9,0,10.3,0s6.9,0,10.3,0c3.4,0,6.9,0,10.3,0c3.4,0,6.9,0,10.3,0
		c3.4,0,6.9,0,10.3,0c3.4,0,6.9,0,10.3,0s6.9,0,10.3,0s6.9,0,10.3,0c3.4,0,6.9,0,10.3,0c3.4,0,6.9,0,10.3,0c3.4,0,6.9,0,10.3,0
		c3.4,0,6.9,0,10.3,0s6.9,0,10.3,0s6.9,0,10.3,0s6.9,0,10.3,0c3.4,0,6.9,0,10.3,0c3.4,0,6.9,0,10.3,0c3.4,0,6.9,0,10.3,0
		c3.4,0,6.9,0,10.3,0c3.4,0,6.9,0,10.3,0c3.4,0,6.9,0,10.3,0c3.4,0,6.9,0,10.3,0c3.4,0,6.9,0,10.3,0s6.9,0,10.3,0s6.9,0,10.3,0
		s6.9,0,10.3,0s6.9,0,10.3,0c3.4,0,6.9,0,10.3,0c3.4,0,6.9,0,10.3,0c3.4,0,6.9,0,10.3,0c3.4,0,6.9,0,10.3,0c3.4,0,6.9,0,10.3,0
		c3.4,0,6.9,0,10.3,0c3.4,0,6.9,0,10.3,0c3.4,0,6.9,0,10.3,0c3.4,0,6.9,0,10.3,0s6.9,0,10.3,0s6.9,0,10.3,0s6.9,0,10.3,0
		c3.4,0,6.9,0,10.3,0c3.4,0,6.9,0,10.3,0c3.4,0,6.9,0,10.3,0c3.4,0,6.9,0,10.3,0c3.4,0,6.9,0,10.3,0c3.4,0,6.9,0,10.3,0
		c3.4,0,6.9,0,10.3,0c3.4,0,6.9,0,10.3,0c3.4,0,6.9,0,10.3,0s6.9,0,10.3,0s6.9,0,10.3,0s6.9,0,10.3,0c3.4,0,6.9,0,10.3,0
		c3.4,0,6.9,0,10.3,0c3.4,0,6.9,0,10.3,0c3.4,0,6.9,0,10.3,0c3.4,0,6.9,0,8.6,0h1.7v-5.7l-1.7,0.4c-1.7,0.4-5.1,1.2-8.6-2.3
		c-3.4-3.6-6.9-11.5-10.3-14.1c-3.4-2.6-6.9,0.2-10.3-1.2c-3.4-1.3-6.9-6.8-10.3-6.2c-3.4,0.6-6.9,7.4-10.3,12.1
		c-3.4,4.7-6.9,7.5-10.3,7.4s-6.9-2.9-10.3-3.5c-3.4-0.6-6.9,1-10.3,1.4s-6.9-0.2-10.3-2.9c-3.4-2.6-6.9-7.2-10.3-6.3
		c-3.4,0.9-6.9,7.4-10.3,10.3c-3.4,2.9-6.9,2.2-10.3,0.4c-3.4-1.7-6.9-4.4-10.3-6.1c-3.4-1.6-6.9-2.2-10.3-1.3
		c-3.4,0.9-6.9,3.4-10.3,4.9c-3.4,1.5-6.9,2.1-10.3,2.2c-3.4,0.1-6.9-0.1-10.3-1.3c-3.4-1.2-6.9-3.3-10.3-3.5s-6.9,1.3-10.3,2.4
		c-3.4,1.1-6.9,1.7-10.3,0.1c-3.4-1.6-6.9-5.3-10.3-5.8c-3.4-0.4-6.9,2.4-10.3,4.2c-3.4,1.8-6.9,2.5-10.3,4.1
		c-3.4,1.6-6.9,4.2-10.3,5.2c-3.4,1-6.9,0.5-10.3,0.2c-3.4-0.3-6.9-0.3-10.3-2.2c-3.4-1.9-6.9-5.8-10.3-6.9
		c-3.4-1.1-6.9,0.6-10.3,2.2c-3.4,1.6-6.9,3.2-10.3,4.3c-3.4,1.1-6.9,1.8-10.3,2.7s-6.9,1.9-10.3,2.3s-6.9,0.3-10.3,0.4
		c-3.4,0.1-6.9,0.3-10.3,0.2s-6.9-0.6-10.3-0.5c-3.4,0.1-6.9,0.7-10.3,0.6c-3.4-0.1-6.9-0.8-10.3-0.7c-3.4,0-6.9,0.8-10.3,1.2
		c-3.4,0.4-6.9,0.4-10.3,0.3c-3.4-0.1-6.9-0.3-10.3-0.4c-3.4-0.1-6.9,0.1-10.3-0.5c-3.4-0.6-6.9-1.8-10.3-2.5
		c-3.4-0.7-6.9-1-10.3-1.6s-6.9-1.4-10.3-1s-6.9,2.1-10.3,3.1s-6.9,1.3-10.3,0.3c-3.4-1-6.9-3.5-10.3-4.9c-3.4-1.5-6.9-2-10.3-1
		c-3.4,1-6.9,3.5-10.3,4.6c-3.4,1-6.9,0.5-10.3,0.5c-3.4,0-6.9,0.4-10.3,0.8s-6.9,0.9-10.3,1.4c-3.4,0.5-6.9,1.1-10.3,0.9
		c-3.4-0.3-6.9-1.4-10.3-1.8c-3.4-0.4-6.9-0.1-10.3-0.1c-3.4,0-6.9-0.2-10.3-8.1s-6.9-23.3-10.3-23.9c-3.4-0.6-6.9,13.7-10.3,17
		c-3.4,3.3-6.9-4.2-10.3-5.9c-3.4-1.6-6.9,2.6-10.3-1.7c-3.4-4.3-6.9-17.3-10.3-19.3c-3.4-2-6.9,7-10.3,11.9s-6.9,5.7-10.3,9.4
		s-6.9,10.3-10.3,10.3c-3.4,0-6.9-6.6-10.3-16.3c-3.4-9.7-6.9-22.5-10.3-20.4c-3.4,2.1-6.9,19.2-10.3,26.4
		c-3.4,7.3-6.9,4.7-10.3,0.1c-3.4-4.6-6.9-11.3-10.3-29.4c-3.4-18.2-6.9-47.8-10.3-45.4c-3.4,2.4-6.9,36.9-10.3,57
		c-3.4,20.2-6.9,26-10.3,28.5c-3.4,2.4-6.9,1.4-10.3-0.8c-3.4-2.2-6.9-5.6-10.3-8.5c-3.4-3-6.9-5.5-10.3-4c-3.4,1.5-6.9,7.1-10.3,9
		c-3.4,1.9-6.9,0.1-10.3-5.6c-3.4-5.7-6.9-15.2-10.3-16.5s-6.9,5.5-10.3,11c-3.4,5.5-6.9,9.7-10.3,8.3c-3.4-1.3-6.9-8.2-10.3-8.7
		s-6.9,5.4-10.3,9.7c-3.4,4.4-6.9,7.2-10.3,7.9c-3.4,0.6-6.9-1-10.3-0.7c-3.4,0.2-6.9,2.3-10.3,3.9c-3.4,1.6-6.9,2.9-10.3,4
		c-3.4,1.2-6.9,2.3-10.3,2.8c-3.4,0.5-6.9,0.4-10.3,0.3c-3.4,0-6.9,0.1-10.3,0.1c-3.4,0-6.9,0-10.3,0c-3.4,0-6.9,0.1-10.3,0.1
		s-6.9,0-10.3,0s-6.9,0-8.6,0H0z"/>
</g>
</svg>
